<?xml version="1.0" encoding="utf-8"?>
<!-- Generator: Adobe Illustrator 23.1.0, SVG Export Plug-In . SVG Version: 6.00 Build 0)  -->
<svg version="1.1" id="Layer_1" xmlns="http://www.w3.org/2000/svg" xmlns:xlink="http://www.w3.org/1999/xlink" x="0px" y="0px"
	 viewBox="0 0 100 100" style="enable-background:new 0 0 100 100;" xml:space="preserve">
<g>
	<path d="M100,42.5c0-7-1.7-12.4-5.3-16.1c-3.2-3.2-7.5-4.9-12.6-4.9c-5.1,0-9.4,1.7-12.6,4.9c-0.3,0.3-0.5,0.5-0.8,0.8
		c1.4,2.3,2.4,4.9,3,7.9c1.6-4.8,5.2-7.4,10.3-7.4c7.3,0,11.4,5.2,11.4,14.7c0,10,0.4,24.7,0.4,24.9h6.2C100,67.2,100,52.4,100,42.5
		z"/>
	<path d="M40.1,35.2c1.6-4.8,5.2-7.4,10.3-7.4c9.1,0,11,8,11,14.7c0,10,0.4,24.7,0.4,24.9h2.5h0.8h3.4c0-0.2-0.4-15-0.4-24.9
		c0-4.3-0.7-8.1-2.1-11.2c-0.8-1.9-1.9-3.5-3.2-4.9c-3.1-3.2-7.4-4.9-12.4-4.9c-5.1,0-9.4,1.7-12.6,4.9c-0.3,0.3-0.6,0.6-0.8,0.9
		c0.6,1,1.2,2.1,1.7,3.2C39.3,32,39.8,33.6,40.1,35.2z"/>
	<path d="M7.1,67.4V42.5c0-9.5,4-14.7,11.4-14.7c5.2,0,8.7,2.6,10.3,7.4c0.7,2,1,4.5,1,7.3v24.9h2.5h0.8h2.5h0.8V42.5
		c0-1.9-0.1-3.6-0.4-5.2c-0.3-2.1-0.9-4.1-1.7-5.8c-0.7-1.5-1.6-2.9-2.6-4.1c-0.3-0.3-0.5-0.6-0.8-0.9c-3.2-3.2-7.5-4.9-12.6-4.9
		c-5.1,0-9.4,1.7-12.6,4.9c-3.6,3.7-5.5,9.1-5.5,16.1v24.9h3.4H7.1z"/>
	<polygon points="0,72.9 0,78.5 100,78.5 100,72.9 100,72.9 0,72.9 	"/>
	<rect x="78.5" y="61.5" width="6.4" height="5.8"/>
</g>
</svg>
